<svg width="158" height="68" viewBox="0 0 158 68" fill="none" xmlns="http://www.w3.org/2000/svg">
<path d="M55.3916 64L52.1002 55.1452H53.6206L56.5444 63.1646H55.826L58.8667 55.1452H60.22L63.1939 63.1646H62.4922L65.4828 55.1452H66.9196L63.6115 64H62.0745L59.2844 56.6822H59.7522L56.9286 64H55.3916ZM73.0806 64.1002C72.1339 64.1002 71.2985 63.9053 70.5745 63.5155C69.8617 63.1257 69.3048 62.591 68.9038 61.9116C68.514 61.2322 68.3191 60.4525 68.3191 59.5726C68.3191 58.6927 68.5084 57.913 68.8871 57.2336C69.277 56.5541 69.806 56.0251 70.4743 55.6464C71.1537 55.2565 71.9167 55.0616 72.7632 55.0616C73.6208 55.0616 74.3782 55.251 75.0354 55.6297C75.6925 56.0084 76.2049 56.543 76.5725 57.2336C76.9512 57.913 77.1405 58.7094 77.1405 59.6227C77.1405 59.6895 77.1349 59.7675 77.1238 59.8566C77.1238 59.9457 77.1182 60.0292 77.1071 60.1072H69.5721V58.9544H76.2717L75.6201 59.3554C75.6313 58.7873 75.5143 58.2806 75.2693 57.835C75.0242 57.3895 74.6845 57.0442 74.2501 56.7992C73.8269 56.543 73.3312 56.4149 72.7632 56.4149C72.2063 56.4149 71.7106 56.543 71.2763 56.7992C70.8419 57.0442 70.5022 57.3951 70.2571 57.8517C70.0121 58.2973 69.8896 58.8096 69.8896 59.3888V59.6561C69.8896 60.2464 70.0232 60.7755 70.2905 61.2433C70.569 61.7 70.9532 62.0564 71.4433 62.3126C71.9334 62.5687 72.4959 62.6968 73.1308 62.6968C73.6543 62.6968 74.1276 62.6077 74.5509 62.4295C74.9853 62.2513 75.364 61.984 75.687 61.6276L76.5725 62.6634C76.1715 63.1312 75.6703 63.4876 75.0688 63.7327C74.4785 63.9777 73.8158 64.1002 73.0806 64.1002ZM84.8978 64.1002C84.1404 64.1002 83.4554 63.9332 82.8428 63.599C82.2413 63.2537 81.7624 62.747 81.4059 62.0787C81.0607 61.4104 80.888 60.575 80.888 59.5726C80.888 58.5701 81.0662 57.7348 81.4226 57.0665C81.7902 56.3982 82.2747 55.897 82.8762 55.5628C83.4888 55.2287 84.1626 55.0616 84.8978 55.0616C85.7665 55.0616 86.5351 55.251 87.2034 55.6297C87.8716 56.0084 88.4007 56.5374 88.7905 57.2169C89.1804 57.8851 89.3753 58.6704 89.3753 59.5726C89.3753 60.4748 89.1804 61.2656 88.7905 61.945C88.4007 62.6244 87.8716 63.1535 87.2034 63.5322C86.5351 63.9109 85.7665 64.1002 84.8978 64.1002ZM80.203 64V51.6032H81.8069V57.5009L81.6398 59.5559L81.7401 61.6109V64H80.203ZM84.7641 62.6968C85.3321 62.6968 85.8389 62.5687 86.2845 62.3126C86.7411 62.0564 87.0975 61.6944 87.3537 61.2266C87.621 60.7477 87.7547 60.1963 87.7547 59.5726C87.7547 58.9377 87.621 58.3919 87.3537 57.9353C87.0975 57.4675 86.7411 57.1055 86.2845 56.8493C85.8389 56.5931 85.3321 56.465 84.7641 56.465C84.2072 56.465 83.7004 56.5931 83.2437 56.8493C82.7982 57.1055 82.4418 57.4675 82.1745 57.9353C81.9183 58.3919 81.7902 58.9377 81.7902 59.5726C81.7902 60.1963 81.9183 60.7477 82.1745 61.2266C82.4418 61.6944 82.7982 62.0564 83.2437 62.3126C83.7004 62.5687 84.2072 62.6968 84.7641 62.6968ZM101.408 64.1002C100.55 64.1002 99.7816 63.9109 99.1022 63.5322C98.4339 63.1535 97.9048 62.6244 97.515 61.945C97.1252 61.2656 96.9302 60.4748 96.9302 59.5726C96.9302 58.6704 97.1252 57.8851 97.515 57.2169C97.9048 56.5374 98.4339 56.0084 99.1022 55.6297C99.7816 55.251 100.55 55.0616 101.408 55.0616C102.154 55.0616 102.828 55.2287 103.429 55.5628C104.031 55.897 104.51 56.3982 104.866 57.0665C105.234 57.7348 105.418 58.5701 105.418 59.5726C105.418 60.575 105.239 61.4104 104.883 62.0787C104.538 62.747 104.064 63.2537 103.463 63.599C102.861 63.9332 102.176 64.1002 101.408 64.1002ZM101.541 62.6968C102.098 62.6968 102.6 62.5687 103.045 62.3126C103.502 62.0564 103.858 61.6944 104.114 61.2266C104.382 60.7477 104.515 60.1963 104.515 59.5726C104.515 58.9377 104.382 58.3919 104.114 57.9353C103.858 57.4675 103.502 57.1055 103.045 56.8493C102.6 56.5931 102.098 56.465 101.541 56.465C100.973 56.465 100.467 56.5931 100.021 56.8493C99.5756 57.1055 99.2191 57.4675 98.9518 57.9353C98.6845 58.3919 98.5508 58.9377 98.5508 59.5726C98.5508 60.1963 98.6845 60.7477 98.9518 61.2266C99.2191 61.6944 99.5756 62.0564 100.021 62.3126C100.467 62.5687 100.973 62.6968 101.541 62.6968ZM104.565 64V61.6109L104.666 59.5559L104.499 57.5009V51.6032H106.103V64H104.565ZM113.916 64.1002C112.969 64.1002 112.133 63.9053 111.409 63.5155C110.697 63.1257 110.14 62.591 109.739 61.9116C109.349 61.2322 109.154 60.4525 109.154 59.5726C109.154 58.6927 109.343 57.913 109.722 57.2336C110.112 56.5541 110.641 56.0251 111.309 55.6464C111.989 55.2565 112.752 55.0616 113.598 55.0616C114.456 55.0616 115.213 55.251 115.87 55.6297C116.527 56.0084 117.04 56.543 117.407 57.2336C117.786 57.913 117.975 58.7094 117.975 59.6227C117.975 59.6895 117.97 59.7675 117.959 59.8566C117.959 59.9457 117.953 60.0292 117.942 60.1072H110.407V58.9544H117.107L116.455 59.3554C116.466 58.7873 116.349 58.2806 116.104 57.835C115.859 57.3895 115.519 57.0442 115.085 56.7992C114.662 56.543 114.166 56.4149 113.598 56.4149C113.041 56.4149 112.546 56.543 112.111 56.7992C111.677 57.0442 111.337 57.3951 111.092 57.8517C110.847 58.2973 110.724 58.8096 110.724 59.3888V59.6561C110.724 60.2464 110.858 60.7755 111.125 61.2433C111.404 61.7 111.788 62.0564 112.278 62.3126C112.768 62.5687 113.331 62.6968 113.966 62.6968C114.489 62.6968 114.962 62.6077 115.386 62.4295C115.82 62.2513 116.199 61.984 116.522 61.6276L117.407 62.6634C117.006 63.1312 116.505 63.4876 115.904 63.7327C115.313 63.9777 114.651 64.1002 113.916 64.1002ZM123.577 64.1002C122.842 64.1002 122.141 64 121.472 63.7995C120.815 63.599 120.297 63.354 119.919 63.0644L120.587 61.7946C120.965 62.0508 121.433 62.268 121.99 62.4462C122.547 62.6244 123.115 62.7135 123.694 62.7135C124.441 62.7135 124.975 62.6077 125.298 62.3961C125.632 62.1845 125.799 61.8893 125.799 61.5106C125.799 61.2322 125.699 61.015 125.499 60.859C125.298 60.7031 125.031 60.5862 124.697 60.5082C124.374 60.4302 124.012 60.3634 123.611 60.3077C123.21 60.2409 122.809 60.1629 122.408 60.0738C122.007 59.9736 121.639 59.8399 121.305 59.6728C120.971 59.4946 120.704 59.2551 120.503 58.9544C120.303 58.6425 120.203 58.2304 120.203 57.7181C120.203 57.1834 120.353 56.7156 120.654 56.3147C120.954 55.9137 121.378 55.6074 121.923 55.3958C122.48 55.173 123.137 55.0616 123.895 55.0616C124.474 55.0616 125.059 55.134 125.649 55.2788C126.251 55.4125 126.741 55.6074 127.119 55.8636L126.434 57.1333C126.033 56.866 125.616 56.6822 125.181 56.582C124.747 56.4817 124.313 56.4316 123.878 56.4316C123.176 56.4316 122.653 56.5486 122.308 56.7825C121.962 57.0052 121.79 57.2948 121.79 57.6512C121.79 57.952 121.89 58.1859 122.09 58.3529C122.302 58.5089 122.569 58.6314 122.892 58.7205C123.227 58.8096 123.594 58.8876 123.995 58.9544C124.396 59.0101 124.797 59.0881 125.198 59.1883C125.599 59.2774 125.961 59.4055 126.284 59.5726C126.618 59.7397 126.885 59.9736 127.086 60.2743C127.298 60.575 127.403 60.976 127.403 61.4772C127.403 62.0118 127.247 62.4741 126.936 62.8639C126.624 63.2537 126.184 63.56 125.616 63.7828C125.048 63.9944 124.368 64.1002 123.577 64.1002ZM130.243 64V55.1452H131.847V64H130.243ZM131.045 53.441C130.733 53.441 130.472 53.3408 130.26 53.1403C130.059 52.9398 129.959 52.6948 129.959 52.4052C129.959 52.1044 130.059 51.8538 130.26 51.6533C130.472 51.4529 130.733 51.3526 131.045 51.3526C131.357 51.3526 131.613 51.4529 131.814 51.6533C132.025 51.8427 132.131 52.0822 132.131 52.3718C132.131 52.6725 132.031 52.9287 131.83 53.1403C131.63 53.3408 131.368 53.441 131.045 53.441ZM139.621 67.3415C138.808 67.3415 138.017 67.2245 137.248 66.9906C136.491 66.7678 135.873 66.4448 135.394 66.0216L136.163 64.7852C136.575 65.1417 137.081 65.4201 137.683 65.6206C138.284 65.8322 138.914 65.938 139.571 65.938C140.618 65.938 141.386 65.693 141.876 65.2029C142.366 64.7128 142.612 63.9666 142.612 62.9642V61.0929L142.779 59.3387L142.695 57.5677V55.1452H144.215V62.7971C144.215 64.3564 143.826 65.5037 143.046 66.2388C142.266 66.9739 141.125 67.3415 139.621 67.3415ZM139.42 63.6324C138.563 63.6324 137.794 63.4542 137.115 63.0978C136.447 62.7302 135.912 62.2235 135.511 61.5774C135.121 60.9314 134.926 60.1852 134.926 59.3387C134.926 58.481 135.121 57.7348 135.511 57.0999C135.912 56.4539 136.447 55.9527 137.115 55.5963C137.794 55.2398 138.563 55.0616 139.42 55.0616C140.178 55.0616 140.868 55.2176 141.492 55.5294C142.116 55.8302 142.612 56.298 142.979 56.9328C143.358 57.5677 143.547 58.3697 143.547 59.3387C143.547 60.2966 143.358 61.0929 142.979 61.7278C142.612 62.3627 142.116 62.8416 141.492 63.1646C140.868 63.4765 140.178 63.6324 139.42 63.6324ZM139.604 62.229C140.195 62.229 140.718 62.1065 141.175 61.8615C141.631 61.6164 141.988 61.2767 142.244 60.8423C142.511 60.4079 142.645 59.9067 142.645 59.3387C142.645 58.7706 142.511 58.2694 142.244 57.835C141.988 57.4006 141.631 57.0665 141.175 56.8326C140.718 56.5875 140.195 56.465 139.604 56.465C139.014 56.465 138.485 56.5875 138.017 56.8326C137.56 57.0665 137.198 57.4006 136.931 57.835C136.675 58.2694 136.547 58.7706 136.547 59.3387C136.547 59.9067 136.675 60.4079 136.931 60.8423C137.198 61.2767 137.56 61.6164 138.017 61.8615C138.485 62.1065 139.014 62.229 139.604 62.229ZM152.844 55.0616C153.568 55.0616 154.202 55.2008 154.748 55.4793C155.305 55.7578 155.739 56.181 156.051 56.7491C156.363 57.3171 156.519 58.0355 156.519 58.9043V64H154.915V59.0881C154.915 58.2304 154.704 57.5844 154.28 57.15C153.868 56.7156 153.283 56.4984 152.526 56.4984C151.958 56.4984 151.462 56.6098 151.039 56.8326C150.616 57.0554 150.287 57.3839 150.053 57.8183C149.831 58.2527 149.719 58.7929 149.719 59.4389V64H148.115V55.1452H149.652V57.5343L149.402 56.8994C149.691 56.3202 150.137 55.8691 150.738 55.5461C151.34 55.2231 152.042 55.0616 152.844 55.0616Z" fill="#3A3A3A"/>
<path d="M139.106 5.79735C138.302 9.34326 136.507 12.2355 134.466 14.9929C132.564 17.5609 130.476 19.968 128.165 22.1755C127.511 22.8006 127.135 23.488 127.029 24.3803C126.754 26.6474 126.643 28.9197 126.886 31.192C127.135 33.498 128.199 34.092 130.24 33.0311C132.277 31.9728 134.04 30.528 135.568 28.8108C135.983 28.3439 136.362 27.8406 136.764 27.3633C137.4 26.6085 138.152 26.1105 139.145 26.6215C140.089 27.1065 140.307 27.9833 140.092 28.956C139.869 29.9573 139.597 30.9534 139.75 31.9883C139.949 33.3398 140.458 33.6381 141.742 33.1608C143.15 32.6368 144.312 31.7108 145.464 30.7822C145.864 30.4605 146.224 30.0896 146.639 29.7939C148.04 28.8004 149.275 29.1687 149.889 30.7381C150.52 32.3489 150.904 32.5071 152.522 31.8716C153.495 31.4903 154.278 30.8444 155.064 30.1778C156.097 29.3036 156.984 29.2803 157.622 30.0144C158.242 30.7277 158.11 31.6771 157.15 32.5616C155.57 34.0142 153.785 35.0855 151.573 35.2593C150.151 35.3708 148.818 35.2152 147.887 33.9727C147.454 33.3943 147.085 33.5732 146.613 33.9156C145.832 34.4837 145.044 35.057 144.201 35.5213C140.383 37.6198 138.025 36.7638 136.448 32.6316C135.475 33.3502 134.551 34.0816 133.581 34.7431C132.162 35.7054 130.702 36.5822 128.912 36.6782C126.57 36.8053 125.19 35.9156 124.274 33.7159C123.574 32.035 123.672 30.2608 123.597 28.5047C123.579 28.1078 123.639 27.7057 123.61 27.3115C123.571 26.7927 123.299 26.5852 122.819 26.8938C122.487 27.1091 122.189 27.3815 121.875 27.6227C119.348 29.5682 116.843 31.5396 114.072 33.14C112.384 34.1154 110.604 34.8339 108.633 35.0336C105.333 35.3682 103.191 33.1063 103.972 29.8717C104.591 27.2985 106.223 25.449 108.75 24.4685C109.351 24.2351 109.971 24.2091 110.599 24.2325C111.585 24.2714 112.275 24.7409 112.308 25.7577C112.342 26.7771 111.699 27.327 110.7 27.3685C108.9 27.4438 107.951 28.6058 107.271 30.0455C106.635 31.3917 107.102 31.9883 108.581 31.8275C110.031 31.6693 111.318 31.0493 112.539 30.3152C116.508 27.9314 120.069 25.0029 123.615 22.0536C124.189 21.5789 124.352 20.9693 124.5 20.2793C125.504 15.5402 126.764 10.8841 129.13 6.60147C130.043 4.94654 131.12 3.41352 132.45 2.07245C132.928 1.58998 133.452 1.13604 134.014 0.757327C135.171 -0.0182603 136.416 -0.313969 137.711 0.427897C138.935 1.12826 139.332 2.28516 139.306 3.61325C139.293 4.29286 139.192 4.97248 139.104 5.79475L139.106 5.79735ZM129.908 15.6128C131.893 13.1927 133.802 10.718 135.083 7.83359C135.693 6.46399 136.258 5.07364 136.012 3.44724C132.992 5.24743 129.086 12.5001 128.959 16.4014C129.364 16.3936 129.496 16.0278 129.908 15.6128Z" fill="#3A3A3A"/>
<path d="M24.9602 14.3884C18.1719 19.9498 12.1929 26.0844 7.65606 33.5109C5.56794 36.9297 3.92857 40.5456 3.23599 44.5325C3.20745 44.7011 3.15039 44.8619 3.11148 45.0279C2.78205 46.356 2.1621 46.9475 1.24644 46.8022C0.260742 46.6466 -0.169852 45.7439 0.0610085 44.3717C1.05967 38.4549 3.7444 33.2722 7.19174 28.4734C12.0061 21.7707 17.7361 15.9317 24.3325 10.9566C26.0159 9.68554 27.8084 8.58052 29.7227 7.68302C32.0494 6.59357 34.4852 6.20448 37.0376 6.41718C39.9791 6.6636 42.2099 8.04099 43.7429 10.5415C45.32 13.1147 45.9478 16.0044 46.4873 18.92C46.9724 21.5476 47.3641 24.196 47.9477 26.8003C48.993 31.4642 50.3289 32.0271 54.3755 29.5707C58.3442 27.1635 61.7863 24.0923 65.0936 20.8654C66.4399 19.5529 67.768 18.2222 69.1505 16.9512C70.0169 16.1548 70.9819 16.1419 71.5811 16.7903C72.1984 17.4596 72.1232 18.3389 71.2153 19.1871C67.0572 23.0729 63.1404 27.2283 58.4324 30.4967C57.0758 31.4409 55.7088 32.3643 54.2146 33.0829C50.0436 35.0906 47.0165 33.8247 45.5301 29.4176C44.7831 27.2024 44.4381 24.8886 44.0257 22.5956C43.6314 20.4141 43.289 18.2222 42.7002 16.0822C42.4122 15.0368 42.0595 14.0174 41.577 13.0473C40.2307 10.3392 38.0829 9.18232 35.0377 9.43652C32.4541 9.65182 30.2285 10.7542 28.117 12.1446C27.0717 12.832 26.073 13.592 24.955 14.3884H24.9602Z" fill="#3A3A3A"/>
<path d="M71.8711 33.2075C71.3886 31.3814 72.076 30.0922 73.3055 28.9949C74.6155 27.8251 76.1148 27.0806 77.8786 26.912C80.1743 26.6915 80.981 27.0106 82.5218 28.7615C83.012 28.7433 83.2662 28.3024 83.6553 28.1052C84.9212 27.4619 86.0469 27.9185 86.1429 29.3166C86.2389 30.6966 87.0223 31.0493 88.1221 31.1609C89.9041 31.3425 91.6369 31.0571 93.3307 30.515C94.3579 30.1856 95.3592 29.7653 96.3942 29.467C97.3046 29.205 98.1477 29.3944 98.5004 30.3801C98.8428 31.3399 98.3941 32.0791 97.507 32.4578C95.5693 33.2827 93.5797 33.9546 91.4761 34.2321C90.0053 34.4241 88.5423 34.5927 87.0664 34.2477C86.3945 34.092 85.6241 34.0038 85.1806 33.524C83.8732 32.1103 82.7449 32.6628 81.3804 33.4747C79.6244 34.5226 77.7256 35.3138 75.5986 35.3241C73.9981 35.3319 72.6959 34.8417 71.8737 33.2075H71.8711ZM77.3365 30.2504C76.4598 30.6032 75.5856 30.9586 75.0253 32.0273C76.286 32.2918 77.2691 31.9105 78.2081 31.4514C78.6983 31.2102 79.6762 31.2543 79.4557 30.432C79.2871 29.8042 78.4778 30.1207 77.9331 30.1181C77.8216 30.1181 77.71 30.1518 77.3365 30.253V30.2504Z" fill="#3A3A3A"/>
<path d="M148.377 21.9267C148.916 21.6803 149.357 21.6699 149.798 21.8229C150.727 22.142 151.326 23.0758 151.103 23.9059C150.877 24.7463 150.273 25.0628 149.44 24.9538C148.447 24.8215 147.653 23.9059 147.715 22.998C147.744 22.5752 147.983 22.2717 148.379 21.9293L148.377 21.9267Z" fill="#3A3A3A"/>
<circle cx="30.2308" cy="60.2308" r="4.23077" fill="#BFFF52"/>
<circle cx="41.7689" cy="60.2308" r="4.23077" fill="#BFFF52"/>
</svg>
